<?xml version="1.0" encoding="iso-8859-1"?>
<!-- Generator: Adobe Illustrator 19.0.0, SVG Export Plug-In . SVG Version: 6.00 Build 0)  -->
<svg version="1.1" id="Layer_1" xmlns="http://www.w3.org/2000/svg" xmlns:xlink="http://www.w3.org/1999/xlink" x="0px" y="0px"
	 viewBox="0 0 512 512" style="enable-background:new 0 0 512 512;" xml:space="preserve">
<g>
	<path style="fill:#7E8488;" d="M396.652,413.529v78.765c0,6.189-5.063,11.252-11.252,11.252H126.601
		c-6.189,0-11.252-5.063-11.252-11.252v-78.765H396.652z"/>
	<path style="fill:#7E8488;" d="M396.652,19.706v67.512H115.348V19.706c0-6.189,5.063-11.252,11.252-11.252h258.799
		C391.587,8.454,396.652,13.517,396.652,19.706z"/>
</g>
<rect x="115.352" y="87.218" style="fill:#00ABD5;" width="281.301" height="326.308"/>
<polygon style="fill:#009DD3;" points="396.652,87.218 115.348,87.218 115.348,413.529 177.235,413.529 396.652,194.113 "/>
<rect x="267.257" y="272.881" style="fill:#F23222;" width="90.014" height="101.274"/>
<rect x="267.257" y="126.601" style="fill:#FFD311;" width="90.014" height="101.274"/>
<g>
	<rect x="154.734" y="272.881" style="fill:#AFB6BB;" width="112.523" height="101.274"/>
	<rect x="154.734" y="126.601" style="fill:#AFB6BB;" width="112.523" height="101.274"/>
</g>
<rect x="154.734" y="126.601" style="fill:#A3A9AE;" width="112.523" height="56.26"/>
<rect x="267.257" y="126.601" style="fill:#FCC418;" width="90.014" height="56.26"/>
<rect x="154.734" y="272.881" style="fill:#A3A9AE;" width="112.523" height="56.26"/>
<rect x="267.257" y="272.881" style="fill:#D43020;" width="90.014" height="56.26"/>
<path d="M385.399,0H126.601c-10.866,0-19.706,8.84-19.706,19.706v472.588c0,10.866,8.84,19.706,19.706,19.706h258.799
	c10.866,0,19.706-8.84,19.706-19.706V19.706C405.105,8.84,396.265,0,385.399,0z M126.601,16.907h258.799
	c1.517,0,2.799,1.282,2.799,2.799v59.059H123.802V19.706C123.802,18.189,125.084,16.907,126.601,16.907z M388.198,95.672v309.404
	H123.802V95.672H388.198z M385.399,495.093H126.601c-1.517,0-2.799-1.282-2.799-2.799v-70.311h264.396v70.311
	C388.198,493.81,386.915,495.093,385.399,495.093z"/>
<rect x="205.365" y="39.382" width="101.274" height="16.907"/>
<rect x="239.123" y="450.079" width="33.757" height="16.907"/>
<path d="M365.723,118.147H146.277v118.176h219.446V118.147z M163.184,135.054h95.614v84.362h-95.614L163.184,135.054
	L163.184,135.054z M348.816,219.415h-73.11v-84.361h73.11V219.415z"/>
<path d="M365.723,382.601V264.424H146.277v118.176H365.723z M348.816,365.694h-73.11v-84.362h73.11V365.694z M163.184,281.331
	h95.614v84.362h-95.614L163.184,281.331L163.184,281.331z"/>
<g>
	<rect x="188.492" y="151.905" style="fill:#FFFFFF;" width="50.635" height="16.907"/>
	<rect x="210.99" y="185.663" style="fill:#FFFFFF;" width="28.13" height="16.907"/>
	<rect x="188.492" y="298.186" style="fill:#FFFFFF;" width="50.635" height="16.907"/>
	<rect x="210.99" y="331.932" style="fill:#FFFFFF;" width="28.13" height="16.907"/>
	<rect x="295.379" y="168.778" style="fill:#FFFFFF;" width="33.756" height="16.907"/>
	<rect x="295.379" y="315.059" style="fill:#FFFFFF;" width="33.756" height="16.907"/>
</g>
<g>
</g>
<g>
</g>
<g>
</g>
<g>
</g>
<g>
</g>
<g>
</g>
<g>
</g>
<g>
</g>
<g>
</g>
<g>
</g>
<g>
</g>
<g>
</g>
<g>
</g>
<g>
</g>
<g>
</g>
</svg>
