<?xml version="1.0" encoding="iso-8859-1"?>
<!-- Generator: Adobe Illustrator 19.0.0, SVG Export Plug-In . SVG Version: 6.00 Build 0)  -->
<svg version="1.1" id="Layer_1" xmlns="http://www.w3.org/2000/svg" xmlns:xlink="http://www.w3.org/1999/xlink" x="0px" y="0px"
	 viewBox="0 0 512 512" style="enable-background:new 0 0 512 512;" xml:space="preserve">
<path style="fill:#E9EDF1;" d="M451.952,468.32H60.048C27.024,468.32,0,441.296,0,408.272V103.728
	C0,70.704,27.024,43.68,60.048,43.68h391.896c33.032,0,60.056,27.024,60.056,60.048v304.544
	C512,441.296,484.976,468.32,451.952,468.32z"/>
<path d="M512,138.184v-34.456c0-33.032-27.024-60.048-60.048-60.048H60.048C27.024,43.68,0,70.704,0,103.728v34.456L512,138.184
	L512,138.184z"/>
<circle style="fill:#FC6F58;" cx="58.4" cy="90.928" r="13.424"/>
<circle style="fill:#49C3E8;" cx="96.64" cy="90.928" r="13.424"/>
<circle style="fill:#FFD160;" cx="134.904" cy="90.928" r="13.424"/>
<g>
	<rect x="429.392" y="87.168" style="fill:#FFFFFF;" width="30.4" height="6.824"/>
	<polygon style="fill:#FFFFFF;" points="450.88,111.088 445.728,106.608 459.384,90.928 445.728,75.256 450.88,70.776 
		468.448,90.928 	"/>
	<path style="fill:#FFFFFF;" d="M379.264,112.296H208.336c-11.752,0-21.368-9.616-21.368-21.368l0,0
		c0-11.752,9.616-21.368,21.368-21.368h170.928c11.752,0,21.368,9.616,21.368,21.368l0,0
		C400.632,102.68,391.016,112.296,379.264,112.296z"/>
</g>
<path d="M212.664,101.152l-4.704-19.24h3.744l1.824,8.736c0.48,2.344,0.936,4.8,1.256,6.704h0.056c0.32-2.024,0.856-4.304,1.4-6.736
	l2.08-8.704H222l1.92,8.856c0.48,2.28,0.88,4.424,1.16,6.504h0.064c0.336-2.12,0.8-4.304,1.304-6.656l2-8.704h3.576l-5.176,19.24
	h-3.76l-2-9.056c-0.496-2.184-0.824-4.016-1.056-6.104h-0.064c-0.336,2.056-0.704,3.92-1.28,6.104l-2.224,9.056
	C216.464,101.152,212.664,101.152,212.664,101.152z"/>
<path d="M237.72,101.152l-4.704-19.24h3.744l1.824,8.736c0.48,2.344,0.936,4.8,1.256,6.704h0.056c0.32-2.024,0.856-4.304,1.4-6.736
	l2.08-8.704h3.68l1.92,8.856c0.48,2.28,0.88,4.424,1.16,6.504h0.064c0.336-2.12,0.8-4.304,1.304-6.656l2-8.704h3.576l-5.176,19.24
	h-3.76l-2-9.056c-0.496-2.184-0.824-4.016-1.056-6.104h-0.064c-0.336,2.056-0.704,3.92-1.28,6.104l-2.224,9.056
	C241.52,101.152,237.72,101.152,237.72,101.152z"/>
<path d="M262.776,101.152l-4.704-19.24h3.744l1.824,8.736c0.48,2.344,0.936,4.8,1.256,6.704h0.056c0.32-2.024,0.856-4.304,1.4-6.736
	l2.08-8.704h3.68l1.92,8.856c0.48,2.28,0.88,4.424,1.16,6.504h0.064c0.336-2.12,0.8-4.304,1.304-6.656l2-8.704h3.576l-5.176,19.24
	h-3.76l-2-9.056c-0.496-2.184-0.824-4.016-1.056-6.104h-0.064c-0.336,2.056-0.704,3.92-1.28,6.104l-2.224,9.056
	C266.576,101.152,262.776,101.152,262.776,101.152z"/>
<path d="M282.064,99.208c0-1.304,0.92-2.256,2.176-2.256c1.28,0,2.176,0.92,2.176,2.256c0,1.296-0.864,2.264-2.176,2.264
	C282.96,101.472,282.064,100.504,282.064,99.208z"/>
<circle cx="384.24" cy="349.976" r="23"/>
<path style="fill:#49C3E8;" d="M459.8,361.304v-22.648l-23.056-2.304c-1.32-4.848-3.336-9.408-5.912-13.584l14.864-18.168
	l-16.016-16.016l-18.896,15.464c-3.952-2.08-8.2-3.68-12.672-4.688l-2.488-24.88h-11.328H384.2h-11.32l-2.488,24.88
	c-4.472,1.008-8.72,2.608-12.672,4.688l-18.896-15.464L322.808,304.6l14.864,18.168c-2.576,4.176-4.6,8.736-5.912,13.584
	l-23.056,2.304v22.648l23.088,2.312c1.328,4.832,3.32,9.4,5.896,13.568L322.8,395.36l16.016,16.016l18.896-15.456
	c3.952,2.08,8.2,3.68,12.672,4.688l2.488,24.88H384.2h0.096h11.328l2.488-24.88c4.472-1.008,8.72-2.608,12.672-4.688l18.896,15.456
	l16.016-16.016l-14.872-18.184c2.576-4.168,4.568-8.728,5.896-13.568L459.8,361.304z M384.248,384.048
	c-18.816,0-34.072-15.256-34.072-34.072c0-18.816,15.256-34.072,34.072-34.072c18.816,0,34.072,15.256,34.072,34.072
	C418.32,368.792,403.064,384.048,384.248,384.048z"/>
<circle cx="163.672" cy="293.472" r="32.688"/>
<path style="fill:#FC6F58;" d="M274.168,309.728V276.6l-33.72-3.368c-1.928-7.096-4.88-13.76-8.656-19.864l21.736-26.568
	l-23.424-23.424l-27.64,22.608c-5.784-3.04-11.992-5.384-18.536-6.856l-3.64-36.384H163.72h-0.12h-16.56l-3.64,36.384
	c-6.544,1.472-12.752,3.816-18.528,6.856l-27.64-22.608L73.808,226.8l21.736,26.568c-3.768,6.104-6.728,12.768-8.656,19.864
	l-33.72,3.368v33.128l33.768,3.376c1.944,7.072,4.856,13.744,8.624,19.84l-21.752,26.592l23.424,23.424l27.632-22.608
	c5.784,3.04,11.992,5.376,18.536,6.856l3.64,36.384h16.568h0.136h16.568l3.64-36.384c6.544-1.472,12.752-3.808,18.536-6.856
	l27.632,22.608l23.424-23.424l-21.752-26.592c3.768-6.096,6.68-12.768,8.624-19.84L274.168,309.728z M163.672,342.992
	c-27.52,0-49.832-22.312-49.832-49.832s22.312-49.832,49.832-49.832s49.832,22.312,49.832,49.832S191.192,342.992,163.672,342.992z"
	/>
<g>
</g>
<g>
</g>
<g>
</g>
<g>
</g>
<g>
</g>
<g>
</g>
<g>
</g>
<g>
</g>
<g>
</g>
<g>
</g>
<g>
</g>
<g>
</g>
<g>
</g>
<g>
</g>
<g>
</g>
</svg>
